<?xml version="1.0" standalone="no"?>
<!DOCTYPE svg PUBLIC "-//W3C//DTD SVG 20010904//EN"
 "http://www.w3.org/TR/2001/REC-SVG-20010904/DTD/svg10.dtd">
<svg version="1.0" xmlns="http://www.w3.org/2000/svg"
 width="700.000000pt" height="700.000000pt" viewBox="0 0 700.000000 700.000000"
 preserveAspectRatio="xMidYMid meet">
<metadata>
Created by potrace 1.14, written by Peter Selinger 2001-2017
</metadata>
<g transform="translate(0.000000,700.000000) scale(0.100000,-0.100000)"
fill="#000000" stroke="none">
<path d="M2395 5122 c-1 -2 -15 -5 -31 -8 -160 -27 -301 -150 -358 -311 -22
-61 -29 -175 -16 -241 38 -185 190 -338 370 -372 79 -15 2218 -14 2291 1 272
55 438 345 349 609 -52 155 -181 274 -337 311 -35 9 -353 12 -1156 13 -610 1
-1110 0 -1112 -2z"/>
<path d="M2345 3955 c-98 -27 -167 -66 -230 -130 -150 -154 -175 -386 -62
-577 58 -99 192 -192 307 -215 25 -5 533 -9 1160 -8 1115 2 1115 2 1182 24
180 58 316 238 323 425 2 71 -19 174 -47 231 -21 41 -93 134 -115 148 -6 4
-18 13 -25 20 -28 27 -93 58 -161 77 -68 19 -108 20 -1176 19 -901 0 -1115 -3
-1156 -14z"/>
<path d="M2437 2814 c-1 -1 -24 -4 -52 -7 -144 -15 -283 -117 -354 -258 -151
-302 66 -666 404 -678 305 -10 536 260 482 564 -11 57 -60 158 -104 211 -42
52 -126 112 -193 138 -37 15 -174 37 -183 30z"/>
</g>
</svg>
